<svg width="282" height="16" viewBox="0 0 282 16" fill="none" xmlns="http://www.w3.org/2000/svg">
<path d="M0 8H123" stroke="white" stroke-opacity="0.3" stroke-width="0.6" stroke-linejoin="round" stroke-dasharray="1.98 1.98"/>
<path d="M158 8L281.794 9" stroke="white" stroke-opacity="0.3" stroke-width="0.6" stroke-linejoin="round" stroke-dasharray="1.98 1.98"/>
<path d="M138.553 13.2283C137.626 13.2283 136.832 13.0224 136.17 12.6106C135.507 12.1943 134.997 11.6058 134.639 10.8448C134.285 10.0839 134.108 9.18876 134.108 8.1593V8.14587C134.108 7.10746 134.287 6.21004 134.646 5.45361C135.008 4.69718 135.521 4.11308 136.183 3.70129C136.85 3.28951 137.64 3.08362 138.553 3.08362C139.471 3.08362 140.261 3.28951 140.923 3.70129C141.59 4.11308 142.102 4.69942 142.46 5.46033C142.819 6.21676 142.998 7.11194 142.998 8.14587V8.1593C142.998 9.18876 142.819 10.0839 142.46 10.8448C142.107 11.6013 141.597 12.1876 140.93 12.6039C140.267 13.0201 139.475 13.2283 138.553 13.2283ZM138.553 12.1138C139.215 12.1138 139.786 11.9504 140.265 11.6237C140.744 11.2969 141.113 10.8381 141.373 10.2473C141.632 9.65202 141.762 8.95601 141.762 8.1593V8.14587C141.762 7.34021 141.632 6.64197 141.373 6.05115C141.113 5.46033 140.744 5.00378 140.265 4.68152C139.786 4.35925 139.215 4.19812 138.553 4.19812C137.895 4.19812 137.327 4.35925 136.848 4.68152C136.369 5.00378 135.997 5.46033 135.733 6.05115C135.474 6.64197 135.344 7.34021 135.344 8.14587V8.1593C135.344 8.95601 135.471 9.65202 135.726 10.2473C135.982 10.8381 136.349 11.2969 136.828 11.6237C137.306 11.9504 137.882 12.1138 138.553 12.1138ZM144.945 13V5.76245H146.113V6.83667H146.22C146.359 6.45622 146.594 6.16081 146.925 5.95044C147.256 5.74007 147.666 5.63489 148.154 5.63489C148.266 5.63489 148.375 5.6416 148.483 5.65503C148.595 5.66398 148.68 5.67293 148.738 5.68188V6.81653C148.617 6.79415 148.498 6.77848 148.382 6.76953C148.27 6.7561 148.149 6.74939 148.02 6.74939C147.648 6.74939 147.319 6.82324 147.033 6.97095C146.746 7.11865 146.52 7.32454 146.354 7.58862C146.193 7.8527 146.113 8.16154 146.113 8.51514V13H144.945Z" fill="white"/>
</svg>
