<svg width="15" height="26" viewBox="0 0 15 26" fill="none" xmlns="http://www.w3.org/2000/svg">
<path d="M6.31371 6.07117C7.09476 5.29012 8.36109 5.29012 9.14214 6.07117M11.9706 3.24275C14.3137 5.58589 14.3137 9.38488 11.9706 11.728C11.5419 12.1567 11.0646 12.5069 10.5563 12.7787V15.9707L9.14214 17.3849L10.5563 18.7991L9.14214 20.2133L10.5563 21.6275L8.43503 23.7488C8.0445 24.1394 7.41134 24.1394 7.02082 23.7488L5.19239 21.9204C5.00485 21.7329 4.89949 21.4785 4.89949 21.2133L4.89949 12.7787C4.39126 12.5069 3.91391 12.1567 3.48528 11.728C1.14214 9.38488 1.14214 5.58589 3.48528 3.24275C5.82843 0.899601 9.62742 0.8996 11.9706 3.24275Z" stroke="#003C97" stroke-width="2" stroke-linecap="round" stroke-linejoin="round"/>
</svg>
